<mxfile host="app.diagrams.net" agent="Mozilla/5.0 (Windows NT 10.0; Win64; x64) AppleWebKit/537.36 (KHTML, like Gecko) Chrome/141.0.0.0 Safari/537.36 Edg/141.0.0.0" version="28.2.5">
  <diagram name="1 oldal" id="L9vAYg0nXC_tgPYHwF1Z">
    <mxGraphModel dx="3072" dy="786" grid="1" gridSize="10" guides="1" tooltips="1" connect="1" arrows="1" fold="1" page="1" pageScale="1" pageWidth="827" pageHeight="1169" math="0" shadow="0">
      <root>
        <mxCell id="0" />
        <mxCell id="1" parent="0" />
        <mxCell id="npf5E2F2gFdfA2hyNey9-1" value="E00XC3_Vendéglátás" style="ellipse;whiteSpace=wrap;html=1;" vertex="1" parent="1">
          <mxGeometry x="170" y="20" width="186" height="100" as="geometry" />
        </mxCell>
        <mxCell id="npf5E2F2gFdfA2hyNey9-2" value="" style="ellipse;whiteSpace=wrap;html=1;" vertex="1" parent="1">
          <mxGeometry x="-715" y="150" width="120" height="80" as="geometry" />
        </mxCell>
        <mxCell id="npf5E2F2gFdfA2hyNey9-3" value="Étterem" style="ellipse;whiteSpace=wrap;html=1;" vertex="1" parent="1">
          <mxGeometry x="-705" y="155" width="100" height="70" as="geometry" />
        </mxCell>
        <mxCell id="npf5E2F2gFdfA2hyNey9-4" value="" style="ellipse;whiteSpace=wrap;html=1;" vertex="1" parent="1">
          <mxGeometry x="-330" y="150" width="120" height="80" as="geometry" />
        </mxCell>
        <mxCell id="npf5E2F2gFdfA2hyNey9-5" value="Főszakács" style="ellipse;whiteSpace=wrap;html=1;" vertex="1" parent="1">
          <mxGeometry x="-320" y="155" width="100" height="70" as="geometry" />
        </mxCell>
        <mxCell id="npf5E2F2gFdfA2hyNey9-6" value="" style="ellipse;whiteSpace=wrap;html=1;" vertex="1" parent="1">
          <mxGeometry y="150" width="120" height="80" as="geometry" />
        </mxCell>
        <mxCell id="npf5E2F2gFdfA2hyNey9-7" value="Szakács" style="ellipse;whiteSpace=wrap;html=1;" vertex="1" parent="1">
          <mxGeometry x="10" y="155" width="100" height="70" as="geometry" />
        </mxCell>
        <mxCell id="npf5E2F2gFdfA2hyNey9-9" value="" style="ellipse;whiteSpace=wrap;html=1;" vertex="1" parent="1">
          <mxGeometry x="400" y="150" width="120" height="80" as="geometry" />
        </mxCell>
        <mxCell id="npf5E2F2gFdfA2hyNey9-10" value="Gyakornok" style="ellipse;whiteSpace=wrap;html=1;" vertex="1" parent="1">
          <mxGeometry x="410" y="155" width="100" height="70" as="geometry" />
        </mxCell>
        <mxCell id="npf5E2F2gFdfA2hyNey9-11" value="" style="ellipse;whiteSpace=wrap;html=1;" vertex="1" parent="1">
          <mxGeometry x="750" y="150" width="120" height="80" as="geometry" />
        </mxCell>
        <mxCell id="npf5E2F2gFdfA2hyNey9-12" value="Vendég" style="ellipse;whiteSpace=wrap;html=1;" vertex="1" parent="1">
          <mxGeometry x="760" y="155" width="100" height="70" as="geometry" />
        </mxCell>
        <mxCell id="npf5E2F2gFdfA2hyNey9-13" value="" style="ellipse;whiteSpace=wrap;html=1;" vertex="1" parent="1">
          <mxGeometry x="1020" y="150" width="120" height="80" as="geometry" />
        </mxCell>
        <mxCell id="npf5E2F2gFdfA2hyNey9-14" value="Rendelés" style="ellipse;whiteSpace=wrap;html=1;" vertex="1" parent="1">
          <mxGeometry x="1030" y="155" width="100" height="70" as="geometry" />
        </mxCell>
        <mxCell id="npf5E2F2gFdfA2hyNey9-15" value="Ekód" style="rhombus;whiteSpace=wrap;html=1;fontStyle=4" vertex="1" parent="1">
          <mxGeometry x="-928" y="210" width="60" height="60" as="geometry" />
        </mxCell>
        <mxCell id="npf5E2F2gFdfA2hyNey9-18" value="" style="endArrow=none;html=1;rounded=0;entryX=0.5;entryY=0;entryDx=0;entryDy=0;exitX=0.5;exitY=1;exitDx=0;exitDy=0;" edge="1" parent="1" source="npf5E2F2gFdfA2hyNey9-1" target="npf5E2F2gFdfA2hyNey9-2">
          <mxGeometry width="50" height="50" relative="1" as="geometry">
            <mxPoint x="340" y="430" as="sourcePoint" />
            <mxPoint x="390" y="380" as="targetPoint" />
          </mxGeometry>
        </mxCell>
        <mxCell id="npf5E2F2gFdfA2hyNey9-19" value="" style="endArrow=none;html=1;rounded=0;entryX=0.5;entryY=0;entryDx=0;entryDy=0;exitX=0.5;exitY=1;exitDx=0;exitDy=0;" edge="1" parent="1" source="npf5E2F2gFdfA2hyNey9-1" target="npf5E2F2gFdfA2hyNey9-4">
          <mxGeometry width="50" height="50" relative="1" as="geometry">
            <mxPoint x="340" y="430" as="sourcePoint" />
            <mxPoint x="390" y="380" as="targetPoint" />
          </mxGeometry>
        </mxCell>
        <mxCell id="npf5E2F2gFdfA2hyNey9-20" value="" style="endArrow=none;html=1;rounded=0;entryX=0.5;entryY=0;entryDx=0;entryDy=0;exitX=0.5;exitY=1;exitDx=0;exitDy=0;" edge="1" parent="1" source="npf5E2F2gFdfA2hyNey9-1" target="npf5E2F2gFdfA2hyNey9-6">
          <mxGeometry width="50" height="50" relative="1" as="geometry">
            <mxPoint x="223" y="135" as="sourcePoint" />
            <mxPoint x="330" y="415" as="targetPoint" />
          </mxGeometry>
        </mxCell>
        <mxCell id="npf5E2F2gFdfA2hyNey9-21" value="" style="endArrow=none;html=1;rounded=0;entryX=0.5;entryY=0;entryDx=0;entryDy=0;exitX=0.5;exitY=1;exitDx=0;exitDy=0;" edge="1" parent="1" source="npf5E2F2gFdfA2hyNey9-1" target="npf5E2F2gFdfA2hyNey9-9">
          <mxGeometry width="50" height="50" relative="1" as="geometry">
            <mxPoint x="300" y="165" as="sourcePoint" />
            <mxPoint x="427" y="425" as="targetPoint" />
          </mxGeometry>
        </mxCell>
        <mxCell id="npf5E2F2gFdfA2hyNey9-22" value="" style="endArrow=none;html=1;rounded=0;entryX=0.5;entryY=0;entryDx=0;entryDy=0;exitX=0.5;exitY=1;exitDx=0;exitDy=0;" edge="1" parent="1" source="npf5E2F2gFdfA2hyNey9-1" target="npf5E2F2gFdfA2hyNey9-11">
          <mxGeometry width="50" height="50" relative="1" as="geometry">
            <mxPoint x="340" y="430" as="sourcePoint" />
            <mxPoint x="390" y="380" as="targetPoint" />
          </mxGeometry>
        </mxCell>
        <mxCell id="npf5E2F2gFdfA2hyNey9-23" value="" style="endArrow=none;html=1;rounded=0;entryX=0.5;entryY=0;entryDx=0;entryDy=0;exitX=0.5;exitY=1;exitDx=0;exitDy=0;" edge="1" parent="1" source="npf5E2F2gFdfA2hyNey9-1" target="npf5E2F2gFdfA2hyNey9-13">
          <mxGeometry width="50" height="50" relative="1" as="geometry">
            <mxPoint x="340" y="430" as="sourcePoint" />
            <mxPoint x="390" y="380" as="targetPoint" />
          </mxGeometry>
        </mxCell>
        <mxCell id="npf5E2F2gFdfA2hyNey9-26" value="Név" style="ellipse;whiteSpace=wrap;html=1;" vertex="1" parent="1">
          <mxGeometry x="-893" y="300" width="90" height="60" as="geometry" />
        </mxCell>
        <mxCell id="npf5E2F2gFdfA2hyNey9-27" value="Csillag" style="ellipse;whiteSpace=wrap;html=1;" vertex="1" parent="1">
          <mxGeometry x="-503" y="300" width="90" height="60" as="geometry" />
        </mxCell>
        <mxCell id="npf5E2F2gFdfA2hyNey9-28" value="Cím" style="ellipse;whiteSpace=wrap;html=1;" vertex="1" parent="1">
          <mxGeometry x="-700" y="300" width="90" height="60" as="geometry" />
        </mxCell>
        <mxCell id="npf5E2F2gFdfA2hyNey9-29" value="" style="endArrow=none;html=1;rounded=0;entryX=0.5;entryY=1;entryDx=0;entryDy=0;exitX=0.5;exitY=0;exitDx=0;exitDy=0;" edge="1" parent="1" source="npf5E2F2gFdfA2hyNey9-26" target="npf5E2F2gFdfA2hyNey9-2">
          <mxGeometry width="50" height="50" relative="1" as="geometry">
            <mxPoint x="-185" y="405" as="sourcePoint" />
            <mxPoint x="-135" y="355" as="targetPoint" />
          </mxGeometry>
        </mxCell>
        <mxCell id="npf5E2F2gFdfA2hyNey9-30" value="" style="endArrow=none;html=1;rounded=0;entryX=0.5;entryY=1;entryDx=0;entryDy=0;exitX=0.5;exitY=0;exitDx=0;exitDy=0;" edge="1" parent="1" source="npf5E2F2gFdfA2hyNey9-28" target="npf5E2F2gFdfA2hyNey9-2">
          <mxGeometry width="50" height="50" relative="1" as="geometry">
            <mxPoint x="-185" y="405" as="sourcePoint" />
            <mxPoint x="-135" y="355" as="targetPoint" />
          </mxGeometry>
        </mxCell>
        <mxCell id="npf5E2F2gFdfA2hyNey9-31" value="" style="endArrow=none;html=1;rounded=0;entryX=0.5;entryY=1;entryDx=0;entryDy=0;exitX=0.5;exitY=0;exitDx=0;exitDy=0;" edge="1" parent="1" source="npf5E2F2gFdfA2hyNey9-27" target="npf5E2F2gFdfA2hyNey9-2">
          <mxGeometry width="50" height="50" relative="1" as="geometry">
            <mxPoint x="-185" y="405" as="sourcePoint" />
            <mxPoint x="-135" y="355" as="targetPoint" />
          </mxGeometry>
        </mxCell>
        <mxCell id="npf5E2F2gFdfA2hyNey9-32" value="" style="endArrow=none;html=1;rounded=0;entryX=1;entryY=0;entryDx=0;entryDy=0;exitX=0.067;exitY=0.725;exitDx=0;exitDy=0;exitPerimeter=0;" edge="1" parent="1" source="npf5E2F2gFdfA2hyNey9-2" target="npf5E2F2gFdfA2hyNey9-15">
          <mxGeometry width="50" height="50" relative="1" as="geometry">
            <mxPoint x="-185" y="405" as="sourcePoint" />
            <mxPoint x="-135" y="355" as="targetPoint" />
          </mxGeometry>
        </mxCell>
        <mxCell id="npf5E2F2gFdfA2hyNey9-33" value="" style="whiteSpace=wrap;html=1;aspect=fixed;" vertex="1" parent="1">
          <mxGeometry x="-868" y="385" width="40" height="40" as="geometry" />
        </mxCell>
        <mxCell id="npf5E2F2gFdfA2hyNey9-34" value="" style="whiteSpace=wrap;html=1;aspect=fixed;" vertex="1" parent="1">
          <mxGeometry x="-478" y="385" width="40" height="40" as="geometry" />
        </mxCell>
        <mxCell id="npf5E2F2gFdfA2hyNey9-35" value="" style="endArrow=none;html=1;rounded=0;exitX=0.5;exitY=0;exitDx=0;exitDy=0;entryX=0.5;entryY=1;entryDx=0;entryDy=0;" edge="1" parent="1" source="npf5E2F2gFdfA2hyNey9-33" target="npf5E2F2gFdfA2hyNey9-26">
          <mxGeometry width="50" height="50" relative="1" as="geometry">
            <mxPoint x="-633" y="465" as="sourcePoint" />
            <mxPoint x="-583" y="415" as="targetPoint" />
          </mxGeometry>
        </mxCell>
        <mxCell id="npf5E2F2gFdfA2hyNey9-36" value="" style="endArrow=none;html=1;rounded=0;entryX=0.5;entryY=1;entryDx=0;entryDy=0;exitX=0.5;exitY=0;exitDx=0;exitDy=0;" edge="1" parent="1" source="npf5E2F2gFdfA2hyNey9-34" target="npf5E2F2gFdfA2hyNey9-27">
          <mxGeometry width="50" height="50" relative="1" as="geometry">
            <mxPoint x="-506" y="465" as="sourcePoint" />
            <mxPoint x="-456" y="415" as="targetPoint" />
          </mxGeometry>
        </mxCell>
        <mxCell id="npf5E2F2gFdfA2hyNey9-41" value="Utca" style="ellipse;whiteSpace=wrap;html=1;" vertex="1" parent="1">
          <mxGeometry x="-700" y="470" width="90" height="60" as="geometry" />
        </mxCell>
        <mxCell id="npf5E2F2gFdfA2hyNey9-42" value="Házszám" style="ellipse;whiteSpace=wrap;html=1;" vertex="1" parent="1">
          <mxGeometry x="-565" y="470" width="90" height="60" as="geometry" />
        </mxCell>
        <mxCell id="npf5E2F2gFdfA2hyNey9-43" value="Város" style="ellipse;whiteSpace=wrap;html=1;" vertex="1" parent="1">
          <mxGeometry x="-828" y="470" width="90" height="60" as="geometry" />
        </mxCell>
        <mxCell id="npf5E2F2gFdfA2hyNey9-44" value="" style="endArrow=none;html=1;rounded=0;entryX=0.5;entryY=1;entryDx=0;entryDy=0;exitX=0.5;exitY=0;exitDx=0;exitDy=0;" edge="1" parent="1" source="npf5E2F2gFdfA2hyNey9-41" target="npf5E2F2gFdfA2hyNey9-28">
          <mxGeometry width="50" height="50" relative="1" as="geometry">
            <mxPoint x="-493" y="420" as="sourcePoint" />
            <mxPoint x="-443" y="370" as="targetPoint" />
          </mxGeometry>
        </mxCell>
        <mxCell id="npf5E2F2gFdfA2hyNey9-46" value="" style="endArrow=none;html=1;rounded=0;entryX=0.5;entryY=1;entryDx=0;entryDy=0;exitX=0.5;exitY=0;exitDx=0;exitDy=0;" edge="1" parent="1" source="npf5E2F2gFdfA2hyNey9-42" target="npf5E2F2gFdfA2hyNey9-28">
          <mxGeometry width="50" height="50" relative="1" as="geometry">
            <mxPoint x="-493" y="420" as="sourcePoint" />
            <mxPoint x="-443" y="370" as="targetPoint" />
          </mxGeometry>
        </mxCell>
        <mxCell id="npf5E2F2gFdfA2hyNey9-47" value="" style="endArrow=none;html=1;rounded=0;entryX=0.5;entryY=1;entryDx=0;entryDy=0;exitX=0.5;exitY=0;exitDx=0;exitDy=0;" edge="1" parent="1" source="npf5E2F2gFdfA2hyNey9-43" target="npf5E2F2gFdfA2hyNey9-28">
          <mxGeometry width="50" height="50" relative="1" as="geometry">
            <mxPoint x="-493" y="420" as="sourcePoint" />
            <mxPoint x="-443" y="370" as="targetPoint" />
          </mxGeometry>
        </mxCell>
        <mxCell id="npf5E2F2gFdfA2hyNey9-48" value="" style="whiteSpace=wrap;html=1;aspect=fixed;" vertex="1" parent="1">
          <mxGeometry x="-803" y="560" width="40" height="40" as="geometry" />
        </mxCell>
        <mxCell id="npf5E2F2gFdfA2hyNey9-49" value="" style="whiteSpace=wrap;html=1;aspect=fixed;" vertex="1" parent="1">
          <mxGeometry x="-675" y="560" width="40" height="40" as="geometry" />
        </mxCell>
        <mxCell id="npf5E2F2gFdfA2hyNey9-50" value="" style="whiteSpace=wrap;html=1;aspect=fixed;" vertex="1" parent="1">
          <mxGeometry x="-540" y="560" width="40" height="40" as="geometry" />
        </mxCell>
        <mxCell id="npf5E2F2gFdfA2hyNey9-51" value="" style="endArrow=none;html=1;rounded=0;entryX=0.5;entryY=1;entryDx=0;entryDy=0;exitX=0.5;exitY=0;exitDx=0;exitDy=0;" edge="1" parent="1" source="npf5E2F2gFdfA2hyNey9-50" target="npf5E2F2gFdfA2hyNey9-42">
          <mxGeometry width="50" height="50" relative="1" as="geometry">
            <mxPoint x="-493" y="420" as="sourcePoint" />
            <mxPoint x="-443" y="370" as="targetPoint" />
          </mxGeometry>
        </mxCell>
        <mxCell id="npf5E2F2gFdfA2hyNey9-53" value="" style="endArrow=none;html=1;rounded=0;entryX=0.5;entryY=1;entryDx=0;entryDy=0;exitX=0.5;exitY=0;exitDx=0;exitDy=0;" edge="1" parent="1" source="npf5E2F2gFdfA2hyNey9-49" target="npf5E2F2gFdfA2hyNey9-41">
          <mxGeometry width="50" height="50" relative="1" as="geometry">
            <mxPoint x="-493" y="420" as="sourcePoint" />
            <mxPoint x="-443" y="370" as="targetPoint" />
          </mxGeometry>
        </mxCell>
        <mxCell id="npf5E2F2gFdfA2hyNey9-55" value="" style="endArrow=none;html=1;rounded=0;entryX=0.5;entryY=1;entryDx=0;entryDy=0;exitX=0.5;exitY=0;exitDx=0;exitDy=0;" edge="1" parent="1" source="npf5E2F2gFdfA2hyNey9-48" target="npf5E2F2gFdfA2hyNey9-43">
          <mxGeometry width="50" height="50" relative="1" as="geometry">
            <mxPoint x="-493" y="420" as="sourcePoint" />
            <mxPoint x="-443" y="370" as="targetPoint" />
          </mxGeometry>
        </mxCell>
        <mxCell id="npf5E2F2gFdfA2hyNey9-62" value="Ekód" style="rhombus;whiteSpace=wrap;html=1;fontStyle=4" vertex="1" parent="1">
          <mxGeometry x="-100" y="250" width="60" height="60" as="geometry" />
        </mxCell>
        <mxCell id="npf5E2F2gFdfA2hyNey9-63" value="" style="endArrow=none;html=1;rounded=0;entryX=0;entryY=0;entryDx=0;entryDy=0;exitX=1;exitY=1;exitDx=0;exitDy=0;" edge="1" parent="1" source="npf5E2F2gFdfA2hyNey9-4" target="npf5E2F2gFdfA2hyNey9-62">
          <mxGeometry width="50" height="50" relative="1" as="geometry">
            <mxPoint x="-390" y="360" as="sourcePoint" />
            <mxPoint x="-340" y="310" as="targetPoint" />
          </mxGeometry>
        </mxCell>
        <mxCell id="npf5E2F2gFdfA2hyNey9-64" value="" style="endArrow=none;dashed=1;html=1;dashPattern=1 3;strokeWidth=2;rounded=0;entryX=0.5;entryY=1;entryDx=0;entryDy=0;" edge="1" parent="1" target="npf5E2F2gFdfA2hyNey9-62">
          <mxGeometry width="50" height="50" relative="1" as="geometry">
            <mxPoint x="-70" y="690" as="sourcePoint" />
            <mxPoint x="-340" y="310" as="targetPoint" />
          </mxGeometry>
        </mxCell>
        <mxCell id="npf5E2F2gFdfA2hyNey9-65" value="" style="endArrow=none;dashed=1;html=1;dashPattern=1 3;strokeWidth=2;rounded=0;" edge="1" parent="1">
          <mxGeometry width="50" height="50" relative="1" as="geometry">
            <mxPoint x="-920" y="690" as="sourcePoint" />
            <mxPoint x="-70" y="690" as="targetPoint" />
          </mxGeometry>
        </mxCell>
        <mxCell id="npf5E2F2gFdfA2hyNey9-66" value="" style="endArrow=none;dashed=1;html=1;dashPattern=1 3;strokeWidth=2;rounded=0;entryX=0;entryY=0.5;entryDx=0;entryDy=0;" edge="1" parent="1" target="npf5E2F2gFdfA2hyNey9-15">
          <mxGeometry width="50" height="50" relative="1" as="geometry">
            <mxPoint x="-928" y="690" as="sourcePoint" />
            <mxPoint x="-340" y="500" as="targetPoint" />
          </mxGeometry>
        </mxCell>
      </root>
    </mxGraphModel>
  </diagram>
</mxfile>
